<svg xmlns="http://www.w3.org/2000/svg" version="1.1" xmlns:xlink="http://www.w3.org/1999/xlink" xmlns:svgjs="http://svgjs.dev/svgjs" width="25" height="1500" viewBox="0 0 1500 1500"><rect width="1500" height="1500" fill="#264653"></rect><g transform="matrix(0.6666666666666666,0,0,0.6666666666666666,249.39393939393938,438.5856950067477)"><svg viewBox="0 0 396 247" data-background-color="#264653" preserveAspectRatio="xMidYMid meet" height="935" width="1500" xmlns="http://www.w3.org/2000/svg" xmlns:xlink="http://www.w3.org/1999/xlink"><g id="tight-bounds" transform="matrix(1,0,0,1,0.2400000000000091,-0.09999999999999432)"><svg viewBox="0 0 395.52 247.2" height="247.2" width="395.52"><g><svg></svg></g><g><svg viewBox="0 0 395.52 247.2" height="247.2" width="395.52"><g transform="matrix(1,0,0,1,75.54432,99.33859735315984)"><svg viewBox="0 0 244.43135999999998 48.5228052936803" height="48.5228052936803" width="244.43135999999998"><g><svg viewBox="0 0 244.43135999999998 48.5228052936803" height="48.5228052936803" width="244.43135999999998"><g><svg viewBox="0 0 244.43135999999998 48.5228052936803" height="48.5228052936803" width="244.43135999999998"><g id="textblocktransform"><svg viewBox="0 0 244.43135999999998 48.5228052936803" height="48.5228052936803" width="244.43135999999998" id="textblock"><g><svg viewBox="0 0 244.43135999999998 48.5228052936803" height="48.5228052936803" width="244.43135999999998"><g transform="matrix(1,0,0,1,0,0)"><svg width="244.43135999999998" viewBox="3.1 -39.55 202.04 40.05" height="48.5228052936803" data-palette-color="#ffffff"><path d="M22.55 0.5L22.55 0.5Q18.5 0.5 14.98-1.05 11.45-2.6 8.78-5.38 6.1-8.15 4.6-11.78 3.1-15.4 3.1-19.55L3.1-19.55Q3.1-23.65 4.58-27.28 6.05-30.9 8.72-33.65 11.4-36.4 14.93-37.98 18.45-39.55 22.55-39.55L22.55-39.55Q26.15-39.55 29.1-38.5 32.05-37.45 34.8-35.15L34.8-35.15Q35.25-34.8 35.33-34.33 35.4-33.85 35.2-33.43 35-33 34.6-32.8L34.6-32.8Q34.5-32.4 34.1-32.2 33.7-32 33.18-32.05 32.65-32.1 32.15-32.5L32.15-32.5Q30.2-34.2 27.9-35.02 25.6-35.85 22.55-35.85L22.55-35.85Q19.3-35.85 16.48-34.55 13.65-33.25 11.5-31 9.35-28.75 8.13-25.8 6.9-22.85 6.9-19.55L6.9-19.55Q6.9-16.15 8.13-13.2 9.35-10.25 11.5-8 13.65-5.75 16.48-4.48 19.3-3.2 22.55-3.2L22.55-3.2Q25.3-3.2 27.75-4.1 30.2-5 32.4-6.7L32.4-6.7Q33-7.2 33.68-7.1 34.35-7 34.85-6.5 35.35-6 35.35-5.2L35.35-5.2Q35.35-4.8 35.25-4.48 35.15-4.15 34.8-3.8L34.8-3.8Q32.25-1.45 29.1-0.48 25.95 0.5 22.55 0.5ZM35.35-17.6L35.35-5.2 31.55-6 31.55-16.05 23.75-16.05Q22.9-16.05 22.35-16.55 21.8-17.05 21.8-17.8L21.8-17.8Q21.8-18.55 22.35-19.03 22.9-19.5 23.75-19.5L23.75-19.5 33.4-19.5Q34.25-19.5 34.8-18.98 35.35-18.45 35.35-17.6L35.35-17.6ZM53.5 0.25L53.5 0.25Q49.5 0.25 46.35-1.55 43.2-3.35 41.4-6.5 39.6-9.65 39.6-13.65L39.6-13.65Q39.6-17.7 41.4-20.85 43.2-24 46.35-25.8 49.5-27.6 53.5-27.6L53.5-27.6Q57.5-27.6 60.62-25.8 63.75-24 65.55-20.85 67.35-17.7 67.4-13.65L67.4-13.65Q67.4-9.65 65.57-6.5 63.75-3.35 60.62-1.55 57.5 0.25 53.5 0.25ZM53.5-3.25L53.5-3.25Q56.4-3.25 58.7-4.6 61-5.95 62.3-8.3 63.6-10.65 63.6-13.65L63.6-13.65Q63.6-16.65 62.3-19.03 61-21.4 58.7-22.75 56.4-24.1 53.5-24.1L53.5-24.1Q50.6-24.1 48.3-22.75 46-21.4 44.67-19.03 43.35-16.65 43.35-13.65L43.35-13.65Q43.35-10.65 44.67-8.3 46-5.95 48.3-4.6 50.6-3.25 53.5-3.25ZM87.35 0.25L87.35 0.25Q83.4 0.25 80.25-1.58 77.1-3.4 75.27-6.55 73.45-9.7 73.45-13.7L73.45-13.7Q73.45-17.65 75.22-20.8 77-23.95 80.05-25.78 83.1-27.6 86.95-27.6L86.95-27.6Q90.3-27.6 93-26.18 95.7-24.75 97.35-22.4L97.35-22.4 97.35-37.1Q97.35-38 97.9-38.53 98.45-39.05 99.3-39.05L99.3-39.05Q100.15-39.05 100.7-38.53 101.25-38 101.25-37.1L101.25-37.1 101.25-13.5Q101.15-9.6 99.32-6.48 97.5-3.35 94.37-1.55 91.25 0.25 87.35 0.25ZM87.35-3.25L87.35-3.25Q90.25-3.25 92.52-4.63 94.8-6 96.12-8.35 97.45-10.7 97.45-13.7L97.45-13.7Q97.45-16.65 96.12-19.03 94.8-21.4 92.52-22.75 90.25-24.1 87.35-24.1L87.35-24.1Q84.5-24.1 82.2-22.75 79.9-21.4 78.55-19.03 77.2-16.65 77.2-13.7L77.2-13.7Q77.2-10.7 78.55-8.35 79.9-6 82.2-4.63 84.5-3.25 87.35-3.25ZM113.64 0L113.64 0Q112.89 0 112.34-0.53 111.79-1.05 111.79-1.95L111.79-1.95 111.79-27.3Q111.79-30.8 112.99-33.45 114.19-36.1 116.54-37.58 118.89-39.05 122.29-39.05L122.29-39.05Q123.14-39.05 123.69-38.55 124.24-38.05 124.24-37.3L124.24-37.3Q124.24-36.55 123.69-36.05 123.14-35.55 122.29-35.55L122.29-35.55Q120.04-35.55 118.57-34.52 117.09-33.5 116.37-31.68 115.64-29.85 115.64-27.5L115.64-27.5 115.64-1.95Q115.64-1.05 115.12-0.53 114.59 0 113.64 0ZM121.64-23L108.59-23Q107.79-23 107.32-23.48 106.84-23.95 106.84-24.65L106.84-24.65Q106.84-25.4 107.32-25.88 107.79-26.35 108.59-26.35L108.59-26.35 121.64-26.35Q122.44-26.35 122.92-25.88 123.39-25.4 123.39-24.65L123.39-24.65Q123.39-23.95 122.92-23.48 122.44-23 121.64-23L121.64-23ZM135.09 0L134.44 0Q132.44 0 130.87-1.1 129.29-2.2 128.42-4.15 127.54-6.1 127.54-8.65L127.54-8.65 127.54-37.15Q127.54-38 128.06-38.53 128.59-39.05 129.44-39.05L129.44-39.05Q130.29-39.05 130.81-38.53 131.34-38 131.34-37.15L131.34-37.15 131.34-8.65Q131.34-6.5 132.22-5.15 133.09-3.8 134.44-3.8L134.44-3.8 135.69-3.8Q136.44-3.8 136.89-3.28 137.34-2.75 137.34-1.9L137.34-1.9Q137.34-1.05 136.72-0.53 136.09 0 135.09 0L135.09 0ZM153.59 0.25L153.59 0.25Q149.59 0.25 146.44-1.55 143.29-3.35 141.49-6.5 139.69-9.65 139.69-13.65L139.69-13.65Q139.69-17.7 141.49-20.85 143.29-24 146.44-25.8 149.59-27.6 153.59-27.6L153.59-27.6Q157.59-27.6 160.71-25.8 163.84-24 165.64-20.85 167.44-17.7 167.49-13.65L167.49-13.65Q167.49-9.65 165.66-6.5 163.84-3.35 160.71-1.55 157.59 0.25 153.59 0.25ZM153.59-3.25L153.59-3.25Q156.49-3.25 158.79-4.6 161.09-5.95 162.39-8.3 163.69-10.65 163.69-13.65L163.69-13.65Q163.69-16.65 162.39-19.03 161.09-21.4 158.79-22.75 156.49-24.1 153.59-24.1L153.59-24.1Q150.69-24.1 148.39-22.75 146.09-21.4 144.76-19.03 143.44-16.65 143.44-13.65L143.44-13.65Q143.44-10.65 144.76-8.3 146.09-5.95 148.39-4.6 150.69-3.25 153.59-3.25ZM179.69 0L179.69 0Q179.04 0 178.54-0.35 178.04-0.7 177.84-1.25L177.84-1.25 170.04-24.65Q169.74-25.9 170.09-26.63 170.44-27.35 171.49-27.35L171.49-27.35Q172.14-27.35 172.64-27 173.14-26.65 173.39-25.9L173.39-25.9 180.34-4.65 179.24-4.65 185.69-25.85Q185.89-26.5 186.36-26.93 186.84-27.35 187.59-27.35L187.59-27.35Q188.34-27.35 188.81-26.95 189.29-26.55 189.49-25.85L189.49-25.85 195.64-5.15 194.79-5.15 201.59-25.9Q202.09-27.35 203.44-27.35L203.44-27.35Q204.54-27.35 204.94-26.53 205.34-25.7 204.94-24.65L204.94-24.65 197.14-1.25Q196.94-0.7 196.46-0.35 195.99 0 195.34 0L195.34 0Q194.69 0 194.16-0.35 193.64-0.7 193.49-1.25L193.49-1.25 187.19-22.15 187.79-22.15 181.49-1.25Q181.29-0.65 180.79-0.33 180.29 0 179.69 0Z" opacity="1" transform="matrix(1,0,0,1,0,0)" fill="#ffffff" class="wordmark-text-0" data-fill-palette-color="primary" id="text-0"></path></svg></g></svg></g></svg></g></svg></g></svg></g></svg></g><g><path d="M0 123.6c0-68.262 55.338-123.6 123.6-123.6 57.92 0 106.535 39.84 119.937 93.611l-2.257 0c-13.351-52.55-60.976-91.423-117.68-91.423-67.054 0-121.412 54.358-121.412 121.412 0 67.054 54.358 121.412 121.412 121.412 56.704 0 104.329-38.873 117.68-91.423l2.257 0c-13.401 53.771-62.017 93.611-119.937 93.611-68.262 0-123.6-55.338-123.6-123.6z" fill="#ffffff" stroke="transparent" data-fill-palette-color="tertiary"></path></g></svg></g><defs></defs></svg><rect width="395.52" height="247.2" fill="none" stroke="none" visibility="hidden"></rect></g></svg></g></svg>