<svg width="140" height="140" viewBox="0 0 140 140" fill="none" xmlns="http://www.w3.org/2000/svg">
<path d="M110.833 11.6667H105V5.83333C105 2.61333 102.387 0 99.1667 0C95.9467 0 93.3333 2.61333 93.3333 5.83333V11.6667H46.6667V5.83333C46.6667 2.61333 44.0533 0 40.8333 0C37.6133 0 35 2.61333 35 5.83333V11.6667H29.1667C13.0842 11.6667 0 24.7508 0 40.8333V110.833C0 126.916 13.0842 140 29.1667 140H110.833C126.916 140 140 126.916 140 110.833V40.8333C140 24.7508 126.916 11.6667 110.833 11.6667ZM29.1667 23.3333H110.833C120.482 23.3333 128.333 31.185 128.333 40.8333V46.6667H11.6667V40.8333C11.6667 31.185 19.5183 23.3333 29.1667 23.3333ZM110.833 128.333H29.1667C19.5183 128.333 11.6667 120.482 11.6667 110.833V58.3333H128.333V110.833C128.333 120.482 120.482 128.333 110.833 128.333ZM81.0367 69.3292C76.6325 69.3292 72.6133 71.1083 69.5508 74.0367C66.4942 71.1142 62.4692 69.3292 58.065 69.3292C48.5158 69.3292 40.7458 77.7058 40.7458 87.9958C40.7458 97.2008 47.7925 107.421 62.3 119.251C64.4 120.96 66.9725 121.818 69.545 121.812C72.1175 121.812 74.6958 120.96 76.7958 119.245C91.2975 107.415 98.3442 97.1892 98.3442 87.9958C98.3442 77.7058 90.5742 69.3292 81.025 69.3292H81.0367ZM69.6792 110.203C54.1042 97.4983 52.4183 90.44 52.4183 87.99C52.4183 84.1283 54.9558 80.99 58.0708 80.99C61.1858 80.99 63.7233 84.1283 63.7233 87.99C63.7233 91.21 66.3367 93.8233 69.5567 93.8233C72.7767 93.8233 75.39 91.21 75.39 87.99C75.39 84.1283 77.9275 80.99 81.0425 80.99C84.1575 80.99 86.695 84.1283 86.695 87.99C86.695 90.4342 85.015 97.4925 69.685 110.203H69.6792Z" fill="#494342"/>
</svg>
