<svg width="55" height="55" viewBox="0 0 55 55" fill="none" xmlns="http://www.w3.org/2000/svg">
<path d="M45.8333 16.0417H41.8504C43.1461 14.8995 44.1746 13.4862 44.863 11.902C45.5513 10.3178 45.8826 8.60156 45.8333 6.875C45.8333 6.26721 45.5919 5.68432 45.1621 5.25455C44.7324 4.82478 44.1495 4.58333 43.5417 4.58333C42.9339 4.58333 42.351 4.82478 41.9212 5.25455C41.4914 5.68432 41.25 6.26721 41.25 6.875C41.25 12.8837 35.8165 14.9646 31.6846 15.6773C33.2096 12.9733 34.1277 9.96959 34.375 6.875C34.375 5.05164 33.6507 3.30295 32.3614 2.01364C31.072 0.724328 29.3234 0 27.5 0C25.6766 0 23.928 0.724328 22.6386 2.01364C21.3493 3.30295 20.625 5.05164 20.625 6.875C20.8723 9.96959 21.7904 12.9733 23.3154 15.6773C19.1835 14.9646 13.75 12.8837 13.75 6.875C13.75 6.26721 13.5086 5.68432 13.0788 5.25455C12.649 4.82478 12.0661 4.58333 11.4583 4.58333C10.8505 4.58333 10.2677 4.82478 9.83788 5.25455C9.40811 5.68432 9.16667 6.26721 9.16667 6.875C9.11742 8.60156 9.44871 10.3178 10.137 11.902C10.8254 13.4862 11.8539 14.8995 13.1496 16.0417H9.16667C6.73552 16.0417 4.40394 17.0074 2.68485 18.7265C0.965771 20.4456 0 22.7772 0 25.2083L0 27.5C0 28.7156 0.482886 29.8814 1.34243 30.7409C2.20197 31.6004 3.36776 32.0833 4.58333 32.0833V43.5417C4.58697 46.5795 5.79535 49.4919 7.94342 51.6399C10.0915 53.788 13.0038 54.9964 16.0417 55H38.9583C41.9962 54.9964 44.9085 53.788 47.0566 51.6399C49.2047 49.4919 50.413 46.5795 50.4167 43.5417V32.0833C51.6322 32.0833 52.798 31.6004 53.6576 30.7409C54.5171 29.8814 55 28.7156 55 27.5V25.2083C55 22.7772 54.0342 20.4456 52.3151 18.7265C50.5961 17.0074 48.2645 16.0417 45.8333 16.0417ZM27.5 4.58333C28.1078 4.58333 28.6907 4.82478 29.1205 5.25455C29.5502 5.68432 29.7917 6.26721 29.7917 6.875C29.515 9.31065 28.7346 11.6621 27.5 13.7798C26.2654 11.6621 25.485 9.31065 25.2083 6.875C25.2083 6.26721 25.4498 5.68432 25.8795 5.25455C26.3093 4.82478 26.8922 4.58333 27.5 4.58333ZM4.58333 25.2083C4.58333 23.9928 5.06622 22.827 5.92576 21.9674C6.7853 21.1079 7.95109 20.625 9.16667 20.625H25.2083V27.5H4.58333V25.2083ZM9.16667 43.5417V32.0833H25.2083V50.4167H16.0417C14.2183 50.4167 12.4696 49.6923 11.1803 48.403C9.891 47.1137 9.16667 45.365 9.16667 43.5417ZM45.8333 43.5417C45.8333 45.365 45.109 47.1137 43.8197 48.403C42.5304 49.6923 40.7817 50.4167 38.9583 50.4167H29.7917V32.0833H45.8333V43.5417ZM29.7917 27.5V20.625H45.8333C47.0489 20.625 48.2147 21.1079 49.0742 21.9674C49.9338 22.827 50.4167 23.9928 50.4167 25.2083V27.5H29.7917Z" fill="#494342"/>
</svg>
