<svg width="55" height="55" viewBox="0 0 55 55" fill="none" xmlns="http://www.w3.org/2000/svg">
<path d="M41.2511 27.5C41.2511 28.765 40.2246 29.7917 38.9597 29.7917C37.6948 29.7917 36.6682 28.765 36.6682 27.5C36.6682 26.235 37.6948 25.2083 38.9597 25.2083C40.2246 25.2083 41.2511 26.235 41.2511 27.5ZM16.0449 11.4583C17.3098 11.4583 18.3364 10.434 18.3364 9.16667C18.3364 6.63896 20.3918 4.58333 22.9193 4.58333C25.4468 4.58333 27.5023 6.63896 27.5023 9.16667C27.5023 10.434 28.5289 11.4583 29.7938 11.4583C31.0587 11.4583 32.0852 10.434 32.0852 9.16667C32.0852 4.11125 27.9743 0 22.9193 0C17.8643 0 13.7534 4.11125 13.7534 9.16667C13.7534 10.434 14.78 11.4583 16.0449 11.4583ZM55 29.7917V34.375C55 36.9096 53.286 38.4519 51.407 38.8529C49.8923 42.6433 47.1173 45.8448 43.5426 47.9142V48.125C43.5426 51.9154 40.4583 55 36.6682 55C33.6801 55 31.132 53.0842 30.1856 50.4167H24.8167C23.8703 53.0842 21.3222 55 18.3341 55C14.544 55 11.4597 51.9154 11.4597 48.125V47.944C5.42163 44.4629 1.87672 37.9133 2.33272 30.8688C2.47709 28.6275 3.04308 26.4985 3.94821 24.5529C1.61778 23.4506 0 21.0788 0 18.3333C0 14.5429 3.08433 11.4583 6.87443 11.4583C8.13932 11.4583 9.1659 12.4827 9.1659 13.75C9.1659 15.0173 8.13932 16.0417 6.87443 16.0417C5.60953 16.0417 4.58295 17.0683 4.58295 18.3333C4.58295 19.4585 5.39872 20.3958 6.46884 20.5883C9.95417 16.4106 15.2979 13.75 21.2328 13.75H33.522C35.2016 10.3629 38.3387 7.99333 42.5206 6.99875C43.8749 6.68021 45.2773 6.99188 46.3726 7.85583C47.484 8.73583 48.1233 10.0513 48.1233 11.4675V19.981C49.5165 21.5646 50.6302 23.375 51.4047 25.3137C53.286 25.7148 55 27.2571 55 29.7917ZM50.417 29.7917H49.7434C48.7305 29.7917 47.8368 29.1248 47.5481 28.1531C46.9203 26.0448 45.7608 24.0831 44.1957 22.4767C43.7764 22.0481 43.5426 21.4729 43.5426 20.8771V11.4675C41.3084 11.9992 38.3524 13.3696 37.209 16.8185C36.8859 17.7879 35.9418 18.4548 34.9404 18.386C34.7846 18.3792 21.2374 18.3356 21.2374 18.3356C13.6687 18.3356 7.37397 23.9708 6.9088 31.1667C6.54216 36.8248 9.61503 42.0567 14.7388 44.4927C15.5385 44.8731 16.0449 45.6798 16.0449 46.5621V48.1273C16.0449 49.3923 17.0738 50.419 18.3364 50.419C19.599 50.419 20.6279 49.3923 20.6279 48.1273C20.6279 46.8623 21.6544 45.8356 22.9193 45.8356H32.0852C33.3501 45.8356 34.3767 46.86 34.3767 48.1273C34.3767 49.3946 35.4056 50.419 36.6682 50.419C37.9308 50.419 38.9597 49.3923 38.9597 48.1273V46.5369C38.9597 45.6546 39.4661 44.8502 40.2635 44.4698C43.797 42.7831 46.4505 39.7008 47.5481 36.0181C47.8368 35.0465 48.7305 34.3796 49.7434 34.3796H50.417V29.7963V29.7917Z" fill="#494342"/>
</svg>
