<svg width="55" height="55" viewBox="0 0 55 55" fill="none" xmlns="http://www.w3.org/2000/svg">
<path d="M36.6587 18.3255C34.0733 18.3277 31.5178 18.8803 29.1619 19.9466C26.8059 21.0129 24.7032 22.5685 22.9932 24.5104C21.9032 23.9798 20.7557 23.577 19.5734 23.3101L22.705 17.0588C22.8788 16.7102 22.961 16.3231 22.9438 15.9339C22.9266 15.5447 22.8106 15.1663 22.6066 14.8345C21.8805 13.7747 20.9037 12.9113 19.7634 12.3213C18.623 11.7314 17.3546 11.4332 16.0713 11.4534C14.7899 11.4351 13.5238 11.7342 12.3856 12.3241C11.2474 12.9139 10.2725 13.7763 9.54738 14.8345C9.34346 15.1663 9.2274 15.5447 9.21019 15.9339C9.19298 16.3231 9.27518 16.7102 9.44902 17.0588L12.5691 23.3055C10.2153 23.8245 8.00874 24.869 6.11414 26.361C4.21953 27.853 2.68573 29.7541 1.62711 31.9225C0.568494 34.0909 0.0123667 36.4706 0.000203903 38.8843C-0.0119589 41.2979 0.520156 43.6831 1.55687 45.8621C2.59358 48.0411 4.10814 49.9576 5.98761 51.4687C7.86708 52.9798 10.063 54.0465 12.4115 54.5893C14.76 55.1321 17.2007 55.1369 19.5513 54.6035C21.902 54.07 24.1021 53.0121 25.9875 51.5084C28.3285 53.201 31.0362 54.3149 33.8893 54.759C36.7424 55.2032 39.66 54.9649 42.4035 54.0637C45.1471 53.1626 47.6388 51.6241 49.6749 49.5741C51.7111 47.524 53.234 45.0206 54.119 42.2683C55.0041 39.5161 55.2263 36.5932 54.7674 33.7386C54.3085 30.8839 53.1816 28.1785 51.4788 25.8434C49.7759 23.5083 47.5455 21.6099 44.9697 20.3033C42.394 18.9967 39.546 18.319 36.6587 18.3255ZM25.7565 44.9662C24.2375 42.9898 23.2896 40.6336 23.0161 38.1546C22.7426 35.6757 23.1541 33.1691 24.2056 30.9083C26.018 32.7279 27.1588 35.1106 27.4406 37.6651C27.7224 40.2197 27.1286 42.7943 25.7565 44.9662ZM4.63386 38.9417C4.62903 37.064 5.08647 35.2141 5.96569 33.5557C6.84491 31.8972 8.11881 30.4814 9.67466 29.4334C11.2305 28.3854 13.0203 27.7377 14.8857 27.5474C16.7511 27.3572 18.6346 27.6303 20.3695 28.3427C18.7372 31.5253 18.0764 35.1185 18.4693 38.6745C18.8623 42.2306 20.2916 45.5922 22.5792 48.3404C20.8663 49.537 18.8584 50.2401 16.7741 50.3731C14.6898 50.506 12.609 50.0638 10.7583 49.0945C8.90763 48.1252 7.35798 46.6661 6.27809 44.8759C5.19821 43.0857 4.62949 41.0332 4.63386 38.9417ZM36.6587 50.3952C33.9936 50.396 31.3868 49.6147 29.1603 48.148C31.4125 44.9599 32.4185 41.0552 31.9876 37.174C31.5568 33.2927 29.7189 29.7046 26.8225 27.0897C28.3998 25.4586 30.3561 24.2443 32.5166 23.5552C34.677 22.8661 36.9743 22.7237 39.2031 23.1408C41.4319 23.5578 43.5228 24.5214 45.2889 25.9452C47.055 27.3691 48.4414 29.209 49.3241 31.3004C50.2068 33.3918 50.5583 35.6697 50.3473 37.9304C50.1362 40.1911 49.3692 42.3642 48.1147 44.2555C46.8601 46.1469 45.1572 47.6975 43.1582 48.7689C41.1591 49.8403 38.926 50.399 36.6587 50.3952ZM23.1739 8.13882L25.4614 3.55744C25.7326 3.0137 26.2084 2.60011 26.7841 2.40766C27.0691 2.31236 27.3702 2.27423 27.6699 2.29543C27.9697 2.31663 28.2624 2.39675 28.5312 2.53121C28.8001 2.66568 29.0399 2.85185 29.2369 3.07912C29.4339 3.30638 29.5842 3.57027 29.6794 3.85573C29.7746 4.14118 29.8127 4.44261 29.7915 4.74281C29.7703 5.043 29.6903 5.33608 29.556 5.60532L27.2685 10.1867C27.1343 10.4559 26.9483 10.696 26.7214 10.8933C26.4945 11.0906 26.2309 11.2412 25.9459 11.3365C25.6608 11.4318 25.3598 11.4699 25.06 11.4487C24.7603 11.4275 24.4676 11.3474 24.1987 11.2129C23.6558 10.9414 23.2427 10.4649 23.0506 9.88841C22.8584 9.3119 22.9028 8.68256 23.1739 8.13882ZM2.58656 5.60532C2.31537 5.06006 2.27159 4.42926 2.46485 3.85168C2.65811 3.2741 3.07258 2.79705 3.61707 2.52548C4.16156 2.25392 4.79149 2.21008 5.36826 2.40361C5.94503 2.59714 6.42141 3.01218 6.6926 3.55744L8.98008 8.13882C9.11436 8.40805 9.19437 8.70113 9.21554 9.00133C9.23671 9.30152 9.19862 9.60295 9.10346 9.88841C9.0083 10.1739 8.85793 10.4378 8.66092 10.665C8.46392 10.8923 8.22414 11.0785 7.95529 11.2129C7.68643 11.3474 7.39376 11.4275 7.09399 11.4487C6.79421 11.4699 6.4932 11.4318 6.20814 11.3365C5.63244 11.144 5.15667 10.7304 4.88548 10.1867L2.58656 5.60532ZM13.7838 6.87207V2.29069C13.7838 1.68316 14.0248 1.10051 14.4538 0.670927C14.8828 0.24134 15.4646 0 16.0713 0C16.678 0 17.2598 0.24134 17.6888 0.670927C18.1178 1.10051 18.3588 1.68316 18.3588 2.29069V6.87207C18.3588 7.4796 18.1178 8.06224 17.6888 8.49183C17.2598 8.92142 16.678 9.16276 16.0713 9.16276C15.4646 9.16276 14.8828 8.92142 14.4538 8.49183C14.0248 8.06224 13.7838 7.4796 13.7838 6.87207Z" fill="#494342"/>
</svg>
